<svg
 xmlns="http://www.w3.org/2000/svg"
 xmlns:xlink="http://www.w3.org/1999/xlink"
 width="681px" height="783px">
<path fill-rule="evenodd"  fill="rgb(54, 100, 147)"
 d="M680.986,201.087 C680.779,260.428 680.949,529.034 680.877,577.474 C680.872,580.505 676.596,587.509 673.983,589.003 C650.629,602.359 574.341,649.788 552.205,662.722 C547.434,665.668 541.476,663.934 536.925,661.308 C510.810,646.240 405.478,586.166 378.696,570.975 C375.908,569.394 376.326,564.222 379.267,562.541 C402.165,549.459 479.425,504.987 504.083,490.970 C509.423,487.934 511.347,483.177 511.343,477.023 C511.311,420.949 512.744,156.559 512.941,104.622 C512.957,100.480 516.779,97.910 520.791,100.216 C549.176,116.527 646.793,172.483 674.008,188.088 C680.895,192.037 681.002,196.299 680.986,201.087 ZM472.513,270.969 C449.780,257.603 372.788,212.668 348.368,198.240 C343.080,195.115 337.996,195.810 332.657,198.872 C284.015,226.770 53.877,356.938 8.709,382.581 C5.108,384.626 0.978,382.587 0.984,377.960 C1.031,345.223 1.068,232.708 1.082,201.337 C1.086,193.399 4.652,191.051 8.830,188.712 C60.396,159.854 294.911,28.843 335.812,2.280 C338.355,0.629 346.396,0.566 348.991,2.090 C372.189,15.716 451.263,58.338 473.490,71.117 C478.417,73.792 479.874,79.823 479.857,85.078 C479.762,115.228 479.986,236.484 480.115,267.272 C480.129,270.478 475.433,272.686 472.513,270.969 ZM10.298,423.879 C36.474,408.916 141.443,348.210 168.060,332.732 C170.831,331.121 175.087,334.088 175.057,337.476 C174.819,363.845 174.300,452.987 173.983,481.348 C173.914,487.490 177.054,491.549 182.372,494.647 C230.823,522.875 458.476,657.342 503.239,683.684 C506.809,685.785 507.103,690.382 503.090,692.685 C474.697,708.982 377.173,765.100 349.979,780.743 C343.098,784.701 339.283,782.783 335.171,780.329 C284.429,750.047 53.861,612.208 10.430,590.021 C7.730,588.641 1.950,581.706 1.976,578.696 C2.208,551.794 1.395,462.002 1.377,436.364 C1.236,430.759 5.736,426.487 10.298,423.879 Z"/>
</svg>
