<svg
 xmlns="http://www.w3.org/2000/svg"
 xmlns:xlink="http://www.w3.org/1999/xlink"
 width="505px" height="566px">
<path fill-rule="evenodd"  fill="rgb(30, 80, 131)"
 d="M348.991,2.090 C372.189,15.716 451.263,58.338 473.490,71.117 C478.417,73.792 479.874,79.823 479.857,85.078 C479.762,115.228 479.986,236.484 480.115,267.272 C480.129,270.478 475.433,272.686 472.513,270.969 C449.780,257.603 372.788,212.668 348.368,198.240 C343.080,195.115 337.996,195.810 332.657,198.872 C284.015,226.770 53.877,356.938 8.709,382.581 C5.108,384.626 0.978,382.587 0.984,377.960 C1.031,345.223 1.068,232.708 1.082,201.337 C1.086,193.399 4.652,191.051 8.830,188.712 C60.396,159.854 294.911,28.843 335.812,2.280 C338.355,0.629 346.396,0.566 348.991,2.090 Z"/>
</svg>
