<svg
 xmlns="http://www.w3.org/2000/svg"
 xmlns:xlink="http://www.w3.org/1999/xlink"
 width="505px" height="566px">
<path fill-rule="evenodd"  fill="rgb(129, 164, 200)"
 d="M297.983,490.003 C274.629,503.359 198.341,550.788 176.205,563.722 C171.434,566.668 165.476,564.934 160.925,562.308 C134.810,547.240 29.478,487.166 2.696,471.975 C-0.092,470.394 0.326,465.222 3.267,463.541 C26.165,450.459 103.425,405.987 128.083,391.970 C133.423,388.934 135.347,384.177 135.343,378.023 C135.311,321.949 136.744,57.559 136.941,5.622 C136.957,1.480 140.779,-1.090 144.791,1.216 C173.176,17.527 270.793,73.483 298.008,89.088 C304.895,93.037 305.002,97.299 304.986,102.087 C304.779,161.428 304.949,430.034 304.877,478.474 C304.872,481.505 300.596,488.509 297.983,490.003 Z"/>
</svg>
