<svg
 xmlns="http://www.w3.org/2000/svg"
 xmlns:xlink="http://www.w3.org/1999/xlink"
 width="505px" height="566px">
<path fill-rule="evenodd"  fill="rgb(81, 123, 166)"
 d="M0.976,246.696 C1.208,219.794 0.395,130.002 0.377,104.364 C0.236,98.759 4.736,94.487 9.298,91.879 C35.474,76.916 140.443,16.210 167.060,0.732 C169.831,-0.879 174.087,2.088 174.057,5.476 C173.819,31.845 173.300,120.987 172.983,149.348 C172.914,155.490 176.054,159.549 181.372,162.647 C229.823,190.875 457.476,325.342 502.239,351.684 C505.809,353.785 506.103,358.382 502.090,360.685 C473.697,376.982 376.173,433.100 348.979,448.743 C342.098,452.701 338.283,450.783 334.171,448.329 C283.429,418.047 52.861,280.208 9.430,258.021 C6.730,256.641 0.950,249.706 0.976,246.696 Z"/>
</svg>
