<svg
 xmlns="http://www.w3.org/2000/svg"
 xmlns:xlink="http://www.w3.org/1999/xlink"
 width="252px" height="252px">
<path fill-rule="evenodd"  fill="rgb(134, 147, 189)"
 d="M126.000,252.000 C56.412,252.000 0.000,195.588 0.000,126.000 C0.000,56.412 56.412,0.000 126.000,0.000 C195.588,0.000 252.000,56.412 252.000,126.000 C252.000,195.588 195.588,252.000 126.000,252.000 ZM126.000,11.000 C62.487,11.000 11.000,62.487 11.000,126.000 C11.000,189.513 62.487,241.000 126.000,241.000 C189.513,241.000 241.000,189.513 241.000,126.000 C241.000,62.487 189.513,11.000 126.000,11.000 ZM211.430,109.918 C208.187,114.123 203.951,117.063 198.721,118.737 C202.570,121.708 205.499,125.013 207.508,128.653 C209.516,132.294 210.520,136.562 210.520,141.457 C210.520,150.077 207.570,156.834 201.671,161.730 C195.771,166.626 187.674,169.073 177.381,169.073 C167.966,169.073 160.507,167.002 155.005,162.860 C149.503,158.717 146.752,153.299 146.752,146.604 C146.752,134.010 153.697,125.264 167.590,120.368 C161.062,115.306 157.798,108.841 157.798,100.974 C157.798,95.912 159.064,91.382 161.596,87.386 C164.127,83.391 167.767,80.262 172.517,78.003 C177.265,75.743 182.820,74.613 189.181,74.613 C197.549,74.613 204.160,76.549 209.014,80.419 C213.867,84.290 216.295,89.342 216.295,95.577 C216.295,100.933 214.673,105.713 211.430,109.918 ZM169.661,143.654 C169.661,145.913 170.424,147.765 171.952,149.209 C173.479,150.652 175.498,151.374 178.009,151.374 C180.937,151.374 183.291,150.495 185.070,148.738 C186.848,146.980 187.737,144.680 187.737,141.834 C187.737,137.022 185.268,132.963 180.331,129.658 C173.217,133.423 169.661,138.089 169.661,143.654 ZM192.162,93.913 C190.969,92.889 189.598,92.376 188.051,92.376 C186.042,92.376 184.295,93.202 182.810,94.855 C181.324,96.508 180.582,98.548 180.582,100.974 C180.582,102.565 181.073,104.175 182.057,105.807 C183.039,107.439 184.348,108.653 185.980,109.447 C188.406,108.528 190.342,107.042 191.785,104.991 C193.229,102.942 193.951,100.786 193.951,98.526 C193.951,96.477 193.354,94.939 192.162,93.913 ZM115.244,169.387 C111.981,169.387 109.345,168.612 107.336,167.065 C105.328,165.517 104.323,163.111 104.323,159.847 C104.323,155.287 105.683,151.709 108.403,149.114 C111.123,146.520 114.868,145.223 119.638,145.223 C123.153,145.223 125.914,146.061 127.923,147.734 C129.931,149.408 130.935,151.813 130.935,154.951 C130.935,159.889 129.680,163.530 127.170,165.872 C124.659,168.215 120.683,169.387 115.244,169.387 ZM69.866,96.330 L66.163,107.941 C67.627,107.774 69.196,107.690 70.870,107.690 C78.443,107.690 84.584,110.149 89.291,115.065 C93.999,119.982 96.352,126.604 96.352,134.930 C96.352,145.851 92.984,154.272 86.247,160.192 C79.510,166.114 69.761,169.073 56.999,169.073 C51.602,169.073 46.486,168.612 41.653,167.693 C36.821,166.773 33.274,165.496 31.015,163.864 L31.015,143.528 C34.320,145.411 38.107,146.886 42.375,147.953 C46.643,149.020 50.492,149.554 53.924,149.554 C65.514,149.554 71.309,145.537 71.309,137.503 C71.309,134.324 70.252,131.750 68.140,129.783 C66.027,127.817 63.171,126.833 59.573,126.833 C57.354,126.833 55.032,127.043 52.606,127.461 C50.179,127.880 48.253,128.339 46.831,128.842 L39.174,123.067 L52.669,76.057 L103.696,76.057 L99.428,96.330 L69.866,96.330 Z"/>
</svg>
