<svg
 xmlns="http://www.w3.org/2000/svg"
 xmlns:xlink="http://www.w3.org/1999/xlink"
 width="252px" height="252px">
<path fill-rule="evenodd"  fill="rgb(19, 79, 97)"
 d="M126.000,252.000 C56.412,252.000 0.000,195.588 0.000,126.000 C0.000,56.412 56.412,0.000 126.000,0.000 C195.588,0.000 252.000,56.412 252.000,126.000 C252.000,195.588 195.588,252.000 126.000,252.000 ZM126.000,11.000 C62.487,11.000 11.000,62.487 11.000,126.000 C11.000,189.513 62.487,241.000 126.000,241.000 C189.513,241.000 241.000,189.513 241.000,126.000 C241.000,62.487 189.513,11.000 126.000,11.000 ZM215.290,95.702 C211.315,94.657 207.486,94.133 203.805,94.133 C197.737,94.133 192.779,94.845 188.930,96.267 C185.079,97.690 181.910,99.960 179.421,103.077 C176.931,106.195 174.703,110.891 172.736,117.167 L173.238,117.167 C177.673,110.054 184.097,106.498 192.507,106.498 C199.201,106.498 204.307,108.653 207.822,112.962 C211.336,117.272 213.094,123.528 213.094,131.729 C213.094,139.052 211.660,145.568 208.794,151.280 C205.928,156.991 201.806,161.385 196.430,164.460 C191.053,167.536 184.828,169.073 177.757,169.073 C168.343,169.073 161.125,166.479 156.104,161.291 C151.083,156.103 148.572,148.424 148.572,138.256 C148.572,133.863 149.115,128.549 150.204,122.314 C153.760,105.912 160.005,93.882 168.939,86.225 C177.872,78.567 189.766,74.739 204.621,74.739 C208.889,74.739 213.763,75.388 219.245,76.685 L215.290,95.702 ZM174.400,147.702 C175.508,149.105 177.004,149.805 178.887,149.805 C181.649,149.805 183.929,148.204 185.729,145.003 C187.527,141.802 188.427,138.005 188.427,133.612 C188.427,128.214 186.502,125.515 182.653,125.515 C179.807,125.515 177.444,127.043 175.561,130.097 C173.678,133.152 172.736,136.938 172.736,141.457 C172.736,144.219 173.290,146.301 174.400,147.702 ZM115.244,169.387 C111.981,169.387 109.345,168.612 107.336,167.065 C105.328,165.517 104.323,163.111 104.323,159.847 C104.323,155.287 105.683,151.709 108.403,149.114 C111.123,146.520 114.868,145.223 119.638,145.223 C123.153,145.223 125.914,146.061 127.923,147.734 C129.931,149.408 130.935,151.813 130.935,154.951 C130.935,159.889 129.680,163.530 127.170,165.872 C124.659,168.215 120.683,169.387 115.244,169.387 ZM69.866,96.330 L66.163,107.941 C67.627,107.774 69.196,107.690 70.870,107.690 C78.443,107.690 84.584,110.149 89.291,115.065 C93.999,119.982 96.352,126.604 96.352,134.930 C96.352,145.851 92.984,154.272 86.247,160.192 C79.510,166.114 69.761,169.073 56.999,169.073 C51.602,169.073 46.486,168.612 41.653,167.693 C36.821,166.773 33.274,165.496 31.015,163.864 L31.015,143.528 C34.320,145.411 38.107,146.886 42.375,147.953 C46.643,149.020 50.492,149.554 53.924,149.554 C65.514,149.554 71.309,145.537 71.309,137.503 C71.309,134.324 70.252,131.750 68.140,129.783 C66.027,127.817 63.171,126.833 59.573,126.833 C57.354,126.833 55.032,127.043 52.606,127.461 C50.179,127.880 48.253,128.339 46.831,128.842 L39.174,123.067 L52.669,76.057 L103.696,76.057 L99.428,96.330 L69.866,96.330 Z"/>
</svg>
