<svg
 xmlns="http://www.w3.org/2000/svg"
 xmlns:xlink="http://www.w3.org/1999/xlink"
 width="252px" height="252px">
<path fill-rule="evenodd"  fill="rgb(54, 100, 147)"
 d="M126.000,252.000 C56.412,252.000 0.000,195.588 0.000,126.000 C0.000,56.412 56.412,0.000 126.000,0.000 C195.588,0.000 252.000,56.412 252.000,126.000 C252.000,195.588 195.588,252.000 126.000,252.000 ZM126.000,11.000 C62.487,11.000 11.000,62.487 11.000,126.000 C11.000,189.513 62.487,241.000 126.000,241.000 C189.513,241.000 241.000,189.513 241.000,126.000 C241.000,62.487 189.513,11.000 126.000,11.000 ZM192.256,167.818 L167.841,167.818 L178.762,117.670 C179.933,112.146 181.523,106.791 183.532,101.602 C180.268,104.448 177.527,106.602 175.310,108.067 L162.569,115.912 L153.091,100.096 L192.005,76.057 L211.525,76.057 L192.256,167.818 ZM115.244,169.387 C111.981,169.387 109.345,168.612 107.336,167.065 C105.328,165.517 104.323,163.111 104.323,159.847 C104.323,155.287 105.683,151.709 108.403,149.114 C111.123,146.520 114.868,145.223 119.638,145.223 C123.153,145.223 125.914,146.061 127.923,147.734 C129.931,149.408 130.935,151.813 130.935,154.951 C130.935,159.889 129.680,163.530 127.170,165.872 C124.659,168.215 120.683,169.387 115.244,169.387 ZM69.866,96.330 L66.163,107.941 C67.627,107.774 69.196,107.690 70.870,107.690 C78.443,107.690 84.584,110.149 89.291,115.065 C93.999,119.982 96.352,126.604 96.352,134.930 C96.352,145.851 92.984,154.272 86.247,160.192 C79.510,166.114 69.761,169.073 56.999,169.073 C51.602,169.073 46.486,168.612 41.653,167.693 C36.821,166.773 33.274,165.496 31.015,163.864 L31.015,143.528 C34.320,145.411 38.107,146.886 42.375,147.953 C46.643,149.020 50.492,149.554 53.924,149.554 C65.514,149.554 71.309,145.537 71.309,137.503 C71.309,134.324 70.252,131.750 68.140,129.783 C66.027,127.817 63.171,126.833 59.573,126.833 C57.354,126.833 55.032,127.043 52.606,127.461 C50.179,127.880 48.253,128.339 46.831,128.842 L39.174,123.067 L52.669,76.057 L103.696,76.057 L99.428,96.330 L69.866,96.330 Z"/>
</svg>
